PathFileType	4	(X/Y/Z)	s01c0103.trc
DataRate	CameraRate	NumFrames	NumMarkers	Units	OrigDataRate	OrigDataStartFrame	OrigNumFrames
200	200	4	48	mm	200	750	2000
Frame#	Time	racr			lacr			c7			jug			rlel			rdr			llel			ldr			s2			lic			ric			lasi			rasi			rpsi			lpsi			rgt			lgt			rth1			rth2			rth3			rth4			rlfc			rsh1			rsh2			rsh3			rsh4			rlmal			rmmal			rcal			rtoe			rmt5			lth1			lth2			lth4			lth3			llfc			lsh1			lsh2			lsh3			lsh4			llmal			lmmal			lcal			ltoe			lmt5			SBIKE			LBIKE			RBIKE			
		X1	Y1	Z1	X2	Y2	Z2	X3	Y3	Z3	X4	Y4	Z4	X5	Y5	Z5	X6	Y6	Z6	X7	Y7	Z7	X8	Y8	Z8	X9	Y9	Z9	X10	Y10	Z10	X11	Y11	Z11	X12	Y12	Z12	X13	Y13	Z13	X14	Y14	Z14	X15	Y15	Z15	X16	Y16	Z16	X17	Y17	Z17	X18	Y18	Z18	X19	Y19	Z19	X20	Y20	Z20	X21	Y21	Z21	X22	Y22	Z22	X23	Y23	Z23	X24	Y24	Z24	X25	Y25	Z25	X26	Y26	Z26	X27	Y27	Z27	X28	Y28	Z28	X29	Y29	Z29	X30	Y30	Z30	X31	Y31	Z31	X32	Y32	Z32	X33	Y33	Z33	X34	Y34	Z34	X35	Y35	Z35	X36	Y36	Z36	X37	Y37	Z37	X38	Y38	Z38	X39	Y39	Z39	X40	Y40	Z40	X41	Y41	Z41	X42	Y42	Z42	X43	Y43	Z43	X44	Y44	Z44	X45	Y45	Z45	X46	Y46	Z46	X47	Y47	Z47	X48	Y48	Z48	
750	3.7500	489.936865	1330.229874	-133.868031	504.278390	1296.925015	-433.591096	454.132627	1386.112754	-279.029897	447.093994	1222.393989	-280.277193	565.925372	1067.174273	-37.290058	732.597271	861.727398	-88.307832	531.177799	1032.182377	-552.644777	709.939744	865.636613	-456.719812	0.000000	0.000000	-0.000000	92.045851	1170.830731	-449.815670	80.949822	1179.594667	-121.629868	94.835636	1120.160866	-426.514087	108.228222	1136.071057	-151.707728	-49.485534	1205.778277	-230.271154	-50.180236	1203.751400	-336.586822	41.544569	1082.653247	-84.258396	30.316761	1026.497690	-466.425004	154.998245	1022.993736	-72.052570	237.308740	1005.475410	-71.294308	322.783313	977.014865	-81.749762	251.558522	1055.100958	-94.428263	400.929825	899.948380	-104.623790	315.894204	820.513920	-75.523961	259.547111	757.286151	-80.997583	194.425514	697.168957	-92.179016	295.254903	724.554121	-116.393405	102.362476	616.253954	-110.930263	146.424420	603.238643	-189.219345	52.974257	615.641734	-166.763000	249.948742	428.470704	-147.003062	151.828102	475.816714	-79.457575	83.223776	907.383294	-469.497499	145.271770	843.683999	-466.951508	185.236008	880.979180	-464.315173	198.242819	778.850024	-446.488845	266.774196	676.460897	-431.679532	223.019090	573.807696	-465.290523	219.006552	487.774013	-457.410276	212.832701	403.109911	-443.156501	274.961904	488.198573	-431.214968	212.668124	286.155806	-414.466923	237.435191	300.588108	-340.952445	160.571039	249.785106	-382.128769	433.240936	195.153234	-383.540234	328.248002	181.986700	-452.122536	-230.207340	890.455552	-258.216945	-23.374940	79.864715	-457.608377	-23.372810	80.295230	-57.247989	
751	3.7550	488.883735	1331.830490	-134.923853	504.691938	1296.429422	-433.664579	453.874980	1386.607746	-279.864924	446.791549	1222.883996	-280.661686	564.840795	1068.446026	-38.259273	732.018351	862.935132	-89.083252	534.090501	1032.961973	-552.689021	711.203077	864.053829	-457.350991	0.000000	0.000000	-0.000000	93.374792	1170.923189	-450.807101	80.681038	1180.735729	-123.067777	95.148901	1119.641555	-427.911776	107.825262	1136.633762	-152.820451	-49.788177	1206.359800	-232.665117	-49.952248	1203.738233	-338.927143	41.030251	1084.768831	-85.431170	29.520744	1026.017907	-467.663082	154.611642	1026.557500	-73.163137	237.100332	1010.465521	-72.409336	323.049332	983.504434	-82.739479	250.460558	1060.257730	-95.869876	403.164155	908.429002	-104.938276	319.069803	828.241195	-76.005562	263.393809	764.568443	-81.426933	198.865596	703.742470	-92.730687	299.508468	731.928842	-116.552596	107.735815	621.562790	-112.076601	152.200672	609.229340	-190.044153	58.673459	619.591021	-167.852244	259.044746	436.958730	-146.985498	159.599019	482.140394	-80.048255	80.689376	906.345085	-470.892871	141.569311	841.443241	-468.605717	182.366684	877.877877	-466.082509	193.332086	775.583193	-448.150464	259.971444	672.088935	-433.207032	215.529805	569.640371	-466.825648	211.646653	483.630910	-458.220612	205.422148	398.995232	-443.647930	267.788972	484.003958	-432.417655	205.461699	282.709662	-414.866333	230.145825	296.477830	-340.804786	153.735617	246.669763	-381.948308	425.014584	187.557515	-383.448338	319.805064	176.173773	-452.021290	-230.301782	890.442267	-258.345618	-23.381412	79.879955	-457.673399	-23.379928	80.326935	-57.291857	
752	3.7600	487.663607	1333.483855	-135.965785	505.053513	1295.930903	-433.712764	453.513858	1387.125359	-280.745822	446.569596	1223.337103	-281.074653	563.613429	1069.609314	-39.135650	731.347288	864.445855	-89.888700	537.118378	1033.656797	-552.639267	712.732076	862.611073	-457.675617	0.000000	0.000000	-0.000000	94.657824	1171.087996	-451.964360	80.418317	1181.828094	-124.255551	95.345367	1119.208049	-429.298116	107.408743	1137.070264	-153.856645	-50.137212	1206.917967	-234.901179	-49.819500	1203.763215	-341.111514	40.505893	1086.865854	-86.666780	28.789507	1025.561010	-468.795501	154.027170	1030.149147	-74.424175	236.797377	1015.322192	-73.812673	323.218358	989.889860	-83.799520	249.030977	1065.275080	-97.599841	405.118698	916.698134	-105.352723	322.234944	835.571487	-76.494510	267.383757	771.134437	-81.948647	203.748806	709.518907	-93.309021	304.090361	738.958433	-116.790471	113.806992	626.062142	-113.145545	158.429223	614.484562	-190.862924	63.870003	622.949540	-169.085685	268.629225	444.816067	-147.006536	167.978771	488.081797	-80.503242	78.467370	905.468049	-472.259138	138.213658	839.365085	-470.209720	179.556942	875.216719	-467.760732	188.729923	772.705746	-449.857751	253.659164	668.341779	-434.455287	208.709018	565.995148	-467.861735	204.538232	479.980307	-458.868279	198.134912	395.467739	-444.108580	260.878749	480.251348	-433.465743	198.041005	279.776950	-415.259118	222.653521	292.834690	-340.634683	146.712713	244.341144	-381.903821	416.030077	180.017291	-382.783662	311.239879	171.157666	-451.987886	-230.358701	890.416060	-258.472522	-23.375556	79.866923	-457.717031	-23.385505	80.349807	-57.337883	
753	3.7650	486.319626	1335.100369	-136.943883	505.351099	1295.426405	-433.748224	453.059537	1387.647448	-281.680729	446.254031	1223.763878	-281.446559	562.145102	1070.682543	-39.859477	730.782060	866.232354	-90.580109	540.262260	1034.248404	-552.397055	714.262484	861.383525	-457.994264	0.000000	0.000000	-0.000000	95.623465	1171.107360	-453.040344	80.140780	1182.763027	-125.314772	95.452039	1118.896679	-430.590449	106.908306	1137.880087	-155.201217	-50.477323	1207.457160	-237.067936	-49.788443	1203.842988	-343.123399	39.859164	1089.006101	-87.714373	28.014372	1025.117031	-470.141873	153.533175	1033.898006	-75.649360	236.378851	1020.219218	-75.221183	323.270024	996.130104	-84.901031	247.870410	1070.241619	-99.183355	406.698540	924.762863	-105.866456	325.460411	842.487476	-77.064047	271.660390	777.183261	-82.559536	208.879365	714.616034	-93.979665	308.854598	745.495340	-117.159927	120.246554	629.768693	-114.247257	164.972396	618.985818	-191.700195	70.078080	625.546944	-170.338498	278.459423	451.999487	-146.930850	176.794527	493.296426	-81.341212	76.361995	904.748156	-473.602864	135.005703	837.756849	-471.793873	176.929192	872.889698	-469.348453	184.599941	770.176316	-451.584262	247.960952	665.060989	-435.629275	202.462306	562.912390	-468.745628	197.782217	476.974640	-459.518281	191.035453	392.490688	-444.563256	254.250364	477.010534	-434.356395	190.435053	277.367922	-415.642239	214.993686	289.672114	-340.445688	139.533829	242.865491	-382.050788	407.114058	173.360477	-382.659013	302.119195	166.293659	-451.893857	-230.435012	890.414536	-258.665430	-23.390511	79.804496	-457.715063	-23.400699	80.373997	-57.374692	
